<?xml version="1.0" encoding="UTF-8"?>
<svg version="1.1" xmlns="http://www.w3.org/2000/svg" width="318" height="159">
<path d="M0 0 C104.94 0 209.88 0 318 0 C318 52.47 318 104.94 318 159 C213.06 159 108.12 159 0 159 C0 106.53 0 54.06 0 0 Z " fill="#C6B384" transform="translate(0,0)"/>
<path d="M0 0 C0.495 0.99 0.495 0.99 1 2 C3.01669827 3.13350534 3.01669827 3.13350534 5 4 C1.06411809 5.06375187 -1.90581315 4.91411009 -5.8125 4.0625 C-10.94094126 3.01414461 -15.84979562 2.80317298 -21.0625 2.8125 C-22.18845581 2.81165405 -22.18845581 2.81165405 -23.3371582 2.81079102 C-27.29841043 2.77926008 -27.29841043 2.77926008 -31 4 C-31.33 4.99 -31.66 5.98 -32 7 C-35.37462715 6.45276317 -37.08235 5.9451 -40 4 C-43.09495187 3.50083254 -43.09495187 3.50083254 -46.5 3.3125 C-48.21703125 3.18294922 -48.21703125 3.18294922 -49.96875 3.05078125 C-53.04762238 2.83138854 -53.04762238 2.83138854 -56 4 C-56 5.98 -56 7.96 -56 10 C-58.31 10.33 -60.62 10.66 -63 11 C-63.33 9.68 -63.66 8.36 -64 7 C-63.34 6.67 -62.68 6.34 -62 6 C-63.03060547 6.03480469 -63.03060547 6.03480469 -64.08203125 6.0703125 C-65.43361328 6.09738281 -65.43361328 6.09738281 -66.8125 6.125 C-67.70582031 6.14820312 -68.59914062 6.17140625 -69.51953125 6.1953125 C-72 6 -72 6 -75 4 C-73.96875 4.04125 -72.9375 4.0825 -71.875 4.125 C-68.06644445 4.00214337 -65.55516627 3.25912139 -62 2 C-56.22284187 0.92741622 -50.65766217 0.92290979 -44.8125 1 C-32.07894305 1.09217348 -19.38021358 0.6217024 -6.65942383 0.09179688 C-4.44072635 0.01521281 -2.22001883 0 0 0 Z " fill="#C3AE6D" transform="translate(200,89)"/>
<path d="M0 0 C3.96 0.33 7.92 0.66 12 1 C12 1.66 12 2.32 12 3 C11.23969482 3.02505615 10.47938965 3.0501123 9.69604492 3.07592773 C6.19307983 3.19321629 2.69029814 3.31533057 -0.8125 3.4375 C-2.00810547 3.47681641 -3.20371094 3.51613281 -4.43554688 3.55664062 C-16.88978559 3.63650945 -16.88978559 3.63650945 -29 6 C-31.36522558 5.07796291 -33.70401807 4.08301035 -36 3 C-36 2.67 -36 2.34 -36 2 C-35.00097656 2.01160156 -34.00195312 2.02320312 -32.97265625 2.03515625 C-31.68230469 2.04417969 -30.39195313 2.05320312 -29.0625 2.0625 C-27.13083984 2.07990234 -27.13083984 2.07990234 -25.16015625 2.09765625 C-22.13701597 2.36532549 -22.13701597 2.36532549 -21 1 C-19.60825641 0.90137397 -18.21163857 0.8692102 -16.81640625 0.8671875 C-15.97142578 0.86589844 -15.12644531 0.86460938 -14.25585938 0.86328125 C-13.36705078 0.86714844 -12.47824219 0.87101562 -11.5625 0.875 C-10.67755859 0.87113281 -9.79261719 0.86726563 -8.88085938 0.86328125 C-8.03458984 0.86457031 -7.18832031 0.86585937 -6.31640625 0.8671875 C-5.53724854 0.86831543 -4.75809082 0.86944336 -3.95532227 0.87060547 C-2 1 -2 1 0 2 C0 1.34 0 0.68 0 0 Z " fill="#D9C387" transform="translate(152,63)"/>
<path d="M0 0 C0.33 0.66 0.66 1.32 1 2 C4.27081471 2.02902429 7.5415963 2.04680684 10.8125 2.0625 C12.2056543 2.07506836 12.2056543 2.07506836 13.62695312 2.08789062 C14.51962891 2.09111328 15.41230469 2.09433594 16.33203125 2.09765625 C17.15421143 2.10289307 17.9763916 2.10812988 18.82348633 2.11352539 C21.18172596 2.08741524 21.18172596 2.08741524 24 1 C25.72795352 0.93197033 27.45835365 0.91504355 29.1875 0.9375 C30.08855469 0.94652344 30.98960937 0.95554687 31.91796875 0.96484375 C32.60503906 0.97644531 33.29210937 0.98804687 34 1 C33.67 1.99 33.34 2.98 33 4 C25.64186702 4.95503491 18.52930567 5.03757404 11.125 4.6875 C10.10664063 4.65205078 9.08828125 4.61660156 8.0390625 4.58007812 C6.56953125 4.51530273 6.56953125 4.51530273 5.0703125 4.44921875 C4.19133301 4.41143311 3.31235352 4.37364746 2.40673828 4.3347168 C-0.10837903 3.9849272 -1.81363016 3.2625382 -4 2 C-2.68 1.34 -1.36 0.68 0 0 Z " fill="#D9CE97" transform="translate(127,71)"/>
<path d="M0 0 C4.39206473 -0.08286915 8.63162139 0.0307793 13 0.5 C18.49098716 1.05371299 23.91862252 1.06242507 29.4296875 0.96289062 C33.09768799 0.91558506 36.43431874 1.11890502 40 2 C40 2.33 40 2.66 40 3 C26.8 3 13.6 3 0 3 C0 2.01 0 1.02 0 0 Z " fill="#CFBE82" transform="translate(232,87)"/>
<path d="M0 0 C14.19 0 28.38 0 43 0 C39.20570149 2.52953234 37.14263155 2.1734438 32.625 2.0625 C27.47397109 1.90719091 27.47397109 1.90719091 22.38671875 2.5234375 C19.51011903 3.09781584 17.10021866 2.87171391 14.1875 2.5625 C9.41958748 2.10280015 4.78681607 1.90794584 0 2 C0 1.34 0 0.68 0 0 Z " fill="#C2AF72" transform="translate(232,90)"/>
<path d="M0 0 C-0.165 0.598125 -0.33 1.19625 -0.5 1.8125 C-1.1114124 4.11344336 -1.1114124 4.11344336 -1 7 C-4.3 7 -7.6 7 -11 7 C-11 6.34 -11 5.68 -11 5 C-11.99 5 -12.98 5 -14 5 C-12.6045933 2.20918661 -10.98580959 1.96096994 -8.125 0.8125 C-7.24070313 0.44769531 -6.35640625 0.08289063 -5.4453125 -0.29296875 C-3 -1 -3 -1 0 0 Z M0 3 C0.99 3.495 0.99 3.495 2 4 C1.01 4.495 1.01 4.495 0 5 C0 4.34 0 3.68 0 3 Z " fill="#DBC788" transform="translate(161,83)"/>
<path d="M0 0 C1.04696045 0.00410889 2.0939209 0.00821777 3.17260742 0.01245117 C4.31665039 0.01438477 5.46069336 0.01631836 6.6394043 0.01831055 C8.44054687 0.03667969 8.44054687 0.03667969 10.27807617 0.05541992 C11.46723633 0.05606445 12.65639648 0.05670898 13.8815918 0.05737305 C18.88750738 0.08266964 23.56998858 0.11169333 28.46557617 1.24291992 C28.46557617 1.57291992 28.46557617 1.90291992 28.46557617 2.24291992 C27.77407471 2.23768311 27.08257324 2.23244629 26.37011719 2.22705078 C23.25611265 2.20634492 20.14212256 2.19328029 17.02807617 2.18041992 C15.93946289 2.17204102 14.85084961 2.16366211 13.72924805 2.1550293 C12.17753906 2.15019531 12.17753906 2.15019531 10.59448242 2.14526367 C9.63614502 2.14002686 8.67780762 2.13479004 7.69042969 2.12939453 C5.49272278 1.99238862 5.49272278 1.99238862 4.46557617 3.24291992 C2.94038341 3.1535419 1.41875688 2.99754846 -0.09692383 2.80541992 C-1.33635742 2.65266602 -1.33635742 2.65266602 -2.60083008 2.49682617 C-3.23891602 2.41303711 -3.87700195 2.32924805 -4.53442383 2.24291992 C-2.53442383 0.24291992 -2.53442383 0.24291992 0 0 Z " fill="#C3AF72" transform="translate(75.534423828125,89.757080078125)"/>
<path d="M0 0 C10.56 0 21.12 0 32 0 C28.71238536 2.19174309 27.21718464 2.1071022 23.39453125 2.0078125 C17.90627032 1.98990627 12.21880703 2.26039766 7 4 C4.63477442 3.07796291 2.29598193 2.08301035 0 1 C0 0.67 0 0.34 0 0 Z " fill="#E1D192" transform="translate(116,65)"/>
<path d="M0 0 C4.95 0 9.9 0 15 0 C15 0.66 15 1.32 15 2 C17.64 2 20.28 2 23 2 C23 2.33 23 2.66 23 3 C15.74 3 8.48 3 1 3 C0.67 2.01 0.34 1.02 0 0 Z " fill="#B5A780" transform="translate(216,143)"/>
<path d="M0 0 C2.31 0 4.62 0 7 0 C7 0.66 7 1.32 7 2 C9.31 2.33 11.62 2.66 14 3 C14 3.33 14 3.66 14 4 C4.1 4 -5.8 4 -16 4 C-16 3.67 -16 3.34 -16 3 C-14.92878906 2.95101562 -13.85757813 2.90203125 -12.75390625 2.8515625 C-11.35674361 2.77654706 -9.9596095 2.7009987 -8.5625 2.625 C-7.85544922 2.5940625 -7.14839844 2.563125 -6.41992188 2.53125 C-4.60760812 2.42719371 -2.80182012 2.22080108 -1 2 C-0.67 1.34 -0.34 0.68 0 0 Z " fill="#B4A67E" transform="translate(153,142)"/>
<path d="M0 0 C2.70583756 0.25560029 5.37210774 0.56759978 8.0625 0.9375 C9.20041992 1.08735352 9.20041992 1.08735352 10.36132812 1.24023438 C12.24154246 1.48856457 14.12086128 1.74365751 16 2 C16 2.33 16 2.66 16 3 C10.75614911 4.7479503 6.52677733 5.19392201 1 5 C0.34 3.68 -0.32 2.36 -1 1 C-0.67 0.67 -0.34 0.34 0 0 Z " fill="#CAB77E" transform="translate(143,99)"/>
<path d="M0 0 C0 1.98 0 3.96 0 6 C-2.31 6.33 -4.62 6.66 -7 7 C-7.33 5.68 -7.66 4.36 -8 3 C-2.25 0 -2.25 0 0 0 Z " fill="#B7A365" transform="translate(144,93)"/>
<path d="M0 0 C4.875 0.875 4.875 0.875 6 2 C8.18292774 2.23481693 10.37203174 2.41363323 12.5625 2.5625 C14.35880859 2.68818359 14.35880859 2.68818359 16.19140625 2.81640625 C17.11824219 2.87699219 18.04507813 2.93757813 19 3 C19 3.33 19 3.66 19 4 C16.79245484 4.19656224 14.58390461 4.38185459 12.375 4.5625 C11.14523438 4.66691406 9.91546875 4.77132812 8.6484375 4.87890625 C5.24372538 4.99191061 2.32441602 4.69045563 -1 4 C-0.67 2.68 -0.34 1.36 0 0 Z " fill="#DECD91" transform="translate(44,70)"/>
<path d="M0 0 C-1 3 -1 3 -3.1875 4.25 C-6.48226898 5.12860506 -8.70800962 4.76557916 -12 4 C-8.15336308 0.86570325 -4.95471579 -1.65157193 0 0 Z " fill="#E0CE90" transform="translate(161,83)"/>
<path d="M0 0 C6.93 0 13.86 0 21 0 C19.02 0.99 19.02 0.99 17 2 C16.67 2.66 16.34 3.32 16 4 C15.01 4 14.02 4 13 4 C13 3.34 13 2.68 13 2 C8.71 1.67 4.42 1.34 0 1 C0 0.67 0 0.34 0 0 Z " fill="#BFAA69" transform="translate(104,92)"/>
<path d="M0 0 C1.01320312 0.17789063 1.01320312 0.17789063 2.046875 0.359375 C0.90234375 1.84765625 0.90234375 1.84765625 -0.953125 3.359375 C-3.65234375 3.65234375 -3.65234375 3.65234375 -6.640625 3.546875 C-7.63449219 3.51980469 -8.62835938 3.49273437 -9.65234375 3.46484375 C-10.41160156 3.43003906 -11.17085937 3.39523438 -11.953125 3.359375 C-8.63472464 -1.61822554 -5.34517294 -0.77242384 0 0 Z " fill="#C1AD72" transform="translate(216.953125,88.640625)"/>
<path d="M0 0 C2.97 0 5.94 0 9 0 C8.67 1.32 8.34 2.64 8 4 C3.91927658 3.44855089 3.08669204 3.08669204 0 0 Z " fill="#BBA564" transform="translate(160,92)"/>
<path d="M0 0 C2.31 0 4.62 0 7 0 C6.67 0.99 6.34 1.98 6 3 C4.02 3 2.04 3 0 3 C0 2.01 0 1.02 0 0 Z " fill="#A99A79" transform="translate(49,150)"/>
<path d="M0 0 C0.99 0.33 1.98 0.66 3 1 C2.67 2.98 2.34 4.96 2 7 C1.01 6.67 0.02 6.34 -1 6 C-1.042721 4.33388095 -1.04063832 2.66617115 -1 1 C-0.67 0.67 -0.34 0.34 0 0 Z " fill="#E3D297" transform="translate(169,68)"/>
<path d="M0 0 C0.66 0.33 1.32 0.66 2 1 C3.70363822 1.22622081 5.41328701 1.40888473 7.125 1.5625 C8.03507813 1.64628906 8.94515625 1.73007813 9.8828125 1.81640625 C10.58148438 1.87699219 11.28015625 1.93757813 12 2 C12 2.33 12 2.66 12 3 C7.38 3 2.76 3 -2 3 C-1.34 2.01 -0.68 1.02 0 0 Z " fill="#CFBB7C" transform="translate(175,87)"/>
<path d="M0 0 C1.98 0 3.96 0 6 0 C6.33 0.99 6.66 1.98 7 3 C4.03 3 1.06 3 -2 3 C-1.34 2.67 -0.68 2.34 0 2 C0 1.34 0 0.68 0 0 Z " fill="#BFB177" transform="translate(197,80)"/>
<path d="M0 0 C3.3 0.33 6.6 0.66 10 1 C10 1.66 10 2.32 10 3 C5.82412255 4.39195915 3.86525224 2.82323219 0 1 C0 0.67 0 0.34 0 0 Z " fill="#DAC88D" transform="translate(116,65)"/>
<path d="M0 0 C2.64 0 5.28 0 8 0 C7.67 0.99 7.34 1.98 7 3 C4.69 3 2.38 3 0 3 C0 2.01 0 1.02 0 0 Z " fill="#AD9571" transform="translate(0,8)"/>
<path d="M0 0 C5.445 1.485 5.445 1.485 11 3 C11 3.33 11 3.66 11 4 C8.36 4 5.72 4 3 4 C3 3.34 3 2.68 3 2 C2.01 2 1.02 2 0 2 C0 1.34 0 0.68 0 0 Z " fill="#D5C182" transform="translate(147,86)"/>
</svg>
