<?xml version="1.0" encoding="UTF-8"?>
<svg version="1.1" xmlns="http://www.w3.org/2000/svg" width="318" height="159">
<path d="M0 0 C104.94 0 209.88 0 318 0 C318 52.47 318 104.94 318 159 C213.06 159 108.12 159 0 159 C0 106.53 0 54.06 0 0 Z " fill="#354FA7" transform="translate(0,0)"/>
<path d="M0 0 C0.81726563 0.04705078 1.63453125 0.09410156 2.4765625 0.14257812 C3.3221875 0.20251953 4.1678125 0.26246094 5.0390625 0.32421875 C6.29589844 0.39672852 6.29589844 0.39672852 7.578125 0.47070312 C11.99879717 0.74525745 16.30602906 1.18127915 20.6640625 2.01171875 C20.6640625 2.34171875 20.6640625 2.67171875 20.6640625 3.01171875 C12.7440625 3.34171875 4.8240625 3.67171875 -3.3359375 4.01171875 C-3.6659375 5.33171875 -3.9959375 6.65171875 -4.3359375 8.01171875 C-3.0159375 8.34171875 -1.6959375 8.67171875 -0.3359375 9.01171875 C-0.3359375 9.67171875 -0.3359375 10.33171875 -0.3359375 11.01171875 C2.6340625 11.50671875 2.6340625 11.50671875 5.6640625 12.01171875 C5.6640625 12.34171875 5.6640625 12.67171875 5.6640625 13.01171875 C0.7140625 13.01171875 -4.2359375 13.01171875 -9.3359375 13.01171875 C-9.6659375 12.02171875 -9.9959375 11.03171875 -10.3359375 10.01171875 C-9.0159375 9.68171875 -7.6959375 9.35171875 -6.3359375 9.01171875 C-6.8515625 8.59921875 -7.3671875 8.18671875 -7.8984375 7.76171875 C-9.3359375 6.01171875 -9.3359375 6.01171875 -9.2734375 3.94921875 C-7.41111368 0.10041619 -3.94839481 -0.24650486 0 0 Z " fill="#356CC7" transform="translate(170.3359375,87.98828125)"/>
<path d="M0 0 C3.3114019 0.57093136 4.75054423 1.54604826 7 4 C7.66 4.33 8.32 4.66 9 5 C9 5.66 9 6.32 9 7 C11.97 7.495 11.97 7.495 15 8 C15 8.33 15 8.66 15 9 C10.05 9 5.1 9 0 9 C-0.33 8.01 -0.66 7.02 -1 6 C0.32 5.67 1.64 5.34 3 5 C2.2575 4.319375 2.2575 4.319375 1.5 3.625 C0 2 0 2 0 0 Z " fill="#679AEC" transform="translate(161,92)"/>
<path d="M0 0 C9.9 0.33 19.8 0.66 30 1 C30 1.66 30 2.32 30 3 C28.53626953 2.98259766 28.53626953 2.98259766 27.04296875 2.96484375 C25.77066406 2.95582031 24.49835938 2.94679688 23.1875 2.9375 C21.92292969 2.92589844 20.65835938 2.91429688 19.35546875 2.90234375 C16.00394763 2.83840884 16.00394763 2.83840884 13 4 C13 3.34 13 2.68 13 2 C12.360625 2.185625 11.72125 2.37125 11.0625 2.5625 C10.381875 2.706875 9.70125 2.85125 9 3 C8.67 2.67 8.34 2.34 8 2 C6.65252916 1.76924918 5.29622435 1.58846937 3.9375 1.4375 C2.638125 1.293125 1.33875 1.14875 0 1 C0 0.67 0 0.34 0 0 Z " fill="#3D6CC5" transform="translate(147,100)"/>
<path d="M0 0 C0.7525708 0.0407666 1.5051416 0.0815332 2.28051758 0.12353516 C3.10745117 0.16736328 3.93438477 0.21119141 4.78637695 0.25634766 C5.65713867 0.30791016 6.52790039 0.35947266 7.42504883 0.41259766 C8.7021875 0.47833984 8.7021875 0.47833984 10.00512695 0.54541016 C14.48118696 0.79465712 18.82665913 1.18574007 23.23754883 2.03759766 C23.23754883 2.36759766 23.23754883 2.69759766 23.23754883 3.03759766 C19.46677994 3.0955889 15.69612549 3.13119071 11.92504883 3.16259766 C10.85319336 3.17935547 9.78133789 3.19611328 8.67700195 3.21337891 C7.64897461 3.21982422 6.62094727 3.22626953 5.56176758 3.23291016 C4.61390381 3.24338379 3.66604004 3.25385742 2.68945312 3.26464844 C0.23754883 3.03759766 0.23754883 3.03759766 -2.76245117 1.03759766 C-1.76245117 0.03759766 -1.76245117 0.03759766 0 0 Z " fill="#417AD3" transform="translate(167.762451171875,87.96240234375)"/>
<path d="M0 0 C2.64 0 5.28 0 8 0 C7.34 1.65 6.68 3.3 6 5 C4.35 5 2.7 5 1 5 C0.67 3.35 0.34 1.7 0 0 Z " fill="#37439E" transform="translate(280,30)"/>
<path d="M0 0 C-0.33 0.66 -0.66 1.32 -1 2 C-1.66 2 -2.32 2 -3 2 C-3 2.66 -3 3.32 -3 4 C-5.97 3.505 -5.97 3.505 -9 3 C-9 2.34 -9 1.68 -9 1 C-9.66 0.67 -10.32 0.34 -11 0 C-7.01803543 -1.05404945 -4.01804691 -0.84098656 0 0 Z " fill="#3569C1" transform="translate(179,96)"/>
<path d="M0 0 C2.31 0 4.62 0 7 0 C6.67 0.99 6.34 1.98 6 3 C3.69 3 1.38 3 -1 3 C-0.67 2.01 -0.34 1.02 0 0 Z " fill="#3B429D" transform="translate(17,139)"/>
<path d="M0 0 C2.31 0.33 4.62 0.66 7 1 C6.67 1.66 6.34 2.32 6 3 C4.02 3 2.04 3 0 3 C0 2.01 0 1.02 0 0 Z " fill="#455CB8" transform="translate(301,114)"/>
<path d="M0 0 C0.99 0 1.98 0 3 0 C3 0.66 3 1.32 3 2 C3.99 2.33 4.98 2.66 6 3 C5.34 3 4.68 3 4 3 C3.67 3.66 3.34 4.32 3 5 C2.01 4.67 1.02 4.34 0 4 C0 2.68 0 1.36 0 0 Z " fill="#3C6CC8" transform="translate(194,97)"/>
</svg>
